# xmcd
#
# Track frame offsets: 
#        150
#        15390
#        19955
#        36150
#        51125
#
# Disc length: 967 seconds
#
# Revision: 0
# Processed by: cddbd v1.5PL3 Copyright (c) Steve Scherf et al.
# Submitted via: ExactAudioCopy v0.95a3
#
DISCID=3403c505
DTITLE=MOVE - Like A Dandelion
DYEAR=2000
DGENRE=Rock
TTITLE0=like a dandelion
TTITLE1=let's step forward
TTITLE2=memories i had in the past
TTITLE3=if saying in a ward
TTITLE4=for all the people
EXTD=
EXTT0=
EXTT1=
EXTT2=
EXTT3=
EXTT4=
PLAYORDER=
